<svg xmlns="http://www.w3.org/2000/svg" width="77.3" height="58" viewBox="0 0 77.3 58"><style>.st0{fill:#fff}</style><path class="st0" d="M9.7 4.8C7 4.8 4.8 7 4.8 9.7v38.7c0 2.7 2.2 4.8 4.8 4.8h58c2.7 0 4.8-2.2 4.8-4.8V9.7c0-2.7-2.2-4.8-4.8-4.8H9.7zm0-4.8h58c5.3 0 9.7 4.3 9.7 9.7v38.7c0 5.3-4.3 9.7-9.7 9.7h-58C4.3 58 0 53.7 0 48.3V9.7C0 4.3 4.3 0 9.7 0z"/><path class="st0" d="M.8 11.5c-1-.9-1.1-2.4-.2-3.4S3 7 4 7.8l29.9 25.9c2.7 2.4 6.8 2.4 9.5 0L73.3 7.8c1-.9 2.5-.8 3.4.2.9 1 .8 2.5-.2 3.4l-29.9 26c-4.5 3.9-11.3 3.9-15.8 0L.8 11.5z"/></svg>