<svg xmlns="http://www.w3.org/2000/svg" width="94" height="94" viewBox="0 0 94 94"><style>.st0{fill:none}.st1{fill:#1e67aa}</style><path class="st0" d="M0 0h94v94H0z"/><path class="st1" d="M44.7 8.3c-1 .1-1.8.8-1.9 1.8-2.7 15.2-8.4 21.2-13.9 26.9S18 48.6 18 61.2c0 6.3 2.8 11.6 6.9 15.6 4.1 4 9.5 6.9 15 8.8 1.1.4 2.3-.2 2.7-1.4.2-.7.1-1.5-.4-2.1-5.2-6.2-6.5-10.5-6.3-13.9.1-2.6 1.1-4.9 2.3-7.2 1.5 1.1 3.2 2.5 4 3 .6.4 1.1.7 1.4.8.3.2.7.3.7.3.6.2 1.3.1 1.8-.3 0 0 2.4-1.7 4.2-5.1 1.3-2.4 2.3-5.8 2.4-10 5.3 6.4 7.3 11.9 7.2 16.5-.1 6.8-4.1 12.3-7.9 15.7-.9.8-.9 2.2-.1 3 .5.5 1.2.7 1.8.7C65.4 84 76 73.9 76 61c0-8.8-1.5-16.7-6.1-25C65.4 27.8 58 19.3 46.3 8.9c-.4-.4-1-.6-1.6-.6zm1.3 6.3c9.9 9.1 16.3 16.6 20.1 23.5 4.2 7.6 5.5 14.6 5.5 22.9 0 7.9-5.2 14.8-11.8 18.2 2.4-3.5 4.3-7.8 4.3-12.8.1-7.1-3.3-15.1-12.5-24.1-.8-.8-2.2-.8-3 0-.5.5-.7 1.2-.6 1.9 1 6.7-.2 11-1.6 13.7-.7 1.3-1.4 2.2-1.9 2.7l-.1-.1c-1-.7-2.9-1.9-5.7-4.3-.9-.8-2.3-.6-3 .3-.1.1-.2.3-.3.4-1.6 3.1-3.7 6.7-3.9 11.4-.1 3.1.8 6.5 3 10.4-2.5-1.4-4.7-2.9-6.6-4.8-3.5-3.4-5.6-7.5-5.6-12.6 0-11.5 4.2-15.5 9.7-21.2 5.1-5.4 10.9-12.3 14-25.5z"/></svg>