<svg xmlns="http://www.w3.org/2000/svg" width="94" height="94" viewBox="0 0 94 94"><style>.st0{fill:none}.st1{fill:#fff}</style><path class="st0" d="M0 0h94v94H0z"/><path class="st1" d="M23.4 19.3c-.7-.4-9.8 7.2-9.8 12.8 0 7.6 10.6 24.9 12.4 31.6 1.5 5.7-2.6 12.6-1.5 12.9 1 .7 11-9.4 11.3-13.8.6-6.8-11.5-26.8-12.5-32-1.1-6 .9-11.3.1-11.5zm22.7-7.8c-.9-.5-12.5 9.2-12.5 16.3 0 9.7 13.5 31.7 15.8 40.3 2 7.3-3.3 16.1-1.9 16.5 1.3.9 14-12 14.5-17.5.6-8.8-14.8-34.3-16-40.9-1.4-7.8 1.1-14.6.1-14.7zm23.4 7.8c-.7-.4-9.8 7.2-9.8 12.8 0 7.6 10.6 24.9 12.4 31.6 1.5 5.7-2.6 12.6-1.5 12.9 1 .7 11-9.4 11.3-13.8.6-6.8-11.5-26.8-12.4-32-1.2-6 .8-11.3 0-11.5z"/></svg>