<svg xmlns="http://www.w3.org/2000/svg" width="94" height="94" viewBox="0 0 94 94"><style>.st0{fill:none}.st1{fill:#fff}</style><path class="st0" d="M0 0h94v94H0z"/><path class="st1" d="M66.7 85c-1.4-.2-2.8-.4-4.1-.7-5.1-1.3-9.9-3.2-14.4-5.9-7.1-3.9-13.5-9-19-14.9-6.7-7.3-12.3-15.3-15.8-24.7-1.4-3.4-2.1-6.9-2.3-10.5-.3-3.6 1-7.1 3.5-9.7 2.1-2.1 4.1-4.4 6.4-6.3 3.5-3 7.3-3 10.7.1 3.6 3.3 7 6.8 10.3 10.4 2.5 2.7 2.5 6.9 0 9.6-1.8 2-3.7 3.8-5.6 5.7-.2.2-.4.3-.7.6 5 9 12.4 16.4 21.4 21.3l4.4-4.5c1.1-1.3 2.5-2.3 4-3 2.5-1.1 5.4-.6 7.3 1.3 3.7 3.5 7.4 7.2 10.9 10.9 2.5 2.7 2.6 6.8.2 9.5-2.2 2.6-4.7 5.1-7.2 7.6-1.8 1.6-4.1 2.7-6.5 2.9-.2 0-.3.1-.5.2l-3 .1zm1.1-4.5c2.5.1 4.9-.8 6.7-2.6 1.7-1.8 3.4-3.5 5.1-5.2.2-.2.4-.5.6-.7 1.2-1.2 1.2-3.1 0-4.3l-.1-.1c-1.4-1.5-2.8-2.9-4.2-4.3-1.8-1.8-3.7-3.7-5.6-5.5-1.1-1.2-3-1.3-4.2-.2l-.1.1c-.3.2-.5.5-.8.8-1.8 1.8-3.5 3.6-5.3 5.3-1.1 1.2-2.8 1.5-4.2.7-1.1-.5-2.2-1.1-3.2-1.7-4.6-2.8-8.8-6.3-12.4-10.4C36.8 49 34 45 31.9 40.7c-1.1-2.3-.8-3.5 1-5.3 1.8-1.8 3.8-3.7 5.6-5.6 1.2-1.1 1.3-2.9.2-4 0-.1-.1-.1-.1-.2-.2-.3-.5-.5-.7-.7l-9-8.9c-1.9-1.9-3.5-1.9-5.4 0-1.9 1.9-3.7 3.5-5.4 5.4-.8.9-1.5 1.9-2 3-.8 2.4-.8 4.9-.1 7.4.8 3.7 2.1 7.3 3.9 10.7 3 6 6.8 11.6 11.4 16.5 7.8 8.9 17.6 15.7 28.7 19.8 2.5.9 5.1 1.5 7.8 1.7z"/></svg>