<!-- Generator: Adobe Illustrator 22.1.0, SVG Export Plug-In  -->
<svg version="1.1"
	 xmlns="http://www.w3.org/2000/svg" xmlns:xlink="http://www.w3.org/1999/xlink" xmlns:a="http://ns.adobe.com/AdobeSVGViewerExtensions/3.0/"
	 x="0px" y="0px" width="77.3px" height="58px" viewBox="0 0 77.3 58" style="enable-background:new 0 0 77.3 58;"
	 xml:space="preserve">
<style type="text/css">
	.st0{fill:#FFFFFF;}
</style>
<defs>
</defs>
<g>
	<path class="st0" d="M9.7,4.8C7,4.8,4.8,7,4.8,9.7v38.7c0,2.7,2.2,4.8,4.8,4.8h58c2.7,0,4.8-2.2,4.8-4.8V9.7c0-2.7-2.2-4.8-4.8-4.8
		H9.7z M9.7,0h58c5.3,0,9.7,4.3,9.7,9.7v38.7c0,5.3-4.3,9.7-9.7,9.7h-58C4.3,58,0,53.7,0,48.3V9.7C0,4.3,4.3,0,9.7,0z"/>
	<path class="st0" d="M0.8,11.5c-1-0.9-1.1-2.4-0.2-3.4S3,7,4,7.8l29.9,25.9c2.7,2.4,6.8,2.4,9.5,0L73.3,7.8c1-0.9,2.5-0.8,3.4,0.2
		c0.9,1,0.8,2.5-0.2,3.4L46.6,37.4c-4.5,3.9-11.3,3.9-15.8,0L0.8,11.5z"/>
</g>
</svg>
