<!-- Generator: Adobe Illustrator 22.1.0, SVG Export Plug-In  -->
<svg version="1.1"
	 xmlns="http://www.w3.org/2000/svg" xmlns:xlink="http://www.w3.org/1999/xlink" xmlns:a="http://ns.adobe.com/AdobeSVGViewerExtensions/3.0/"
	 x="0px" y="0px" width="94px" height="94px" viewBox="0 0 94 94" style="enable-background:new 0 0 94 94;" xml:space="preserve">
<style type="text/css">
	.st0{fill:none;}
	.st1{fill:#FFFFFF;}
</style>
<defs>
</defs>
<g>
	<rect class="st0" width="94" height="94"/>
</g>
<path class="st1" d="M44.7,8.3c-1,0.1-1.8,0.8-1.9,1.8C40.1,25.3,34.4,31.3,28.9,37S18,48.6,18,61.2c0,6.3,2.8,11.6,6.9,15.6
	c4.1,4,9.5,6.9,15,8.8c1.1,0.4,2.3-0.2,2.7-1.4c0.2-0.7,0.1-1.5-0.4-2.1c-5.2-6.2-6.5-10.5-6.3-13.9c0.1-2.6,1.1-4.9,2.3-7.2
	c1.5,1.1,3.2,2.5,4,3c0.6,0.4,1.1,0.7,1.4,0.8c0.3,0.2,0.7,0.3,0.7,0.3c0.6,0.2,1.3,0.1,1.8-0.3c0,0,2.4-1.7,4.2-5.1
	c1.3-2.4,2.3-5.8,2.4-10c5.3,6.4,7.3,11.9,7.2,16.5C59.8,73,55.8,78.5,52,81.9c-0.9,0.8-0.9,2.2-0.1,3c0.5,0.5,1.2,0.7,1.8,0.7
	C65.4,84,76,73.9,76,61c0-8.8-1.5-16.7-6.1-25C65.4,27.8,58,19.3,46.3,8.9C45.9,8.5,45.3,8.3,44.7,8.3z M46,14.6
	c9.9,9.1,16.3,16.6,20.1,23.5c4.2,7.6,5.5,14.6,5.5,22.9c0,7.9-5.2,14.8-11.8,18.2c2.4-3.5,4.3-7.8,4.3-12.8
	c0.1-7.1-3.3-15.1-12.5-24.1c-0.8-0.8-2.2-0.8-3,0c-0.5,0.5-0.7,1.2-0.6,1.9c1,6.7-0.2,11-1.6,13.7c-0.7,1.3-1.4,2.2-1.9,2.7
	c0,0,0,0-0.1-0.1c-1-0.7-2.9-1.9-5.7-4.3c-0.9-0.8-2.3-0.6-3,0.3c-0.1,0.1-0.2,0.3-0.3,0.4c-1.6,3.1-3.7,6.7-3.9,11.4
	c-0.1,3.1,0.8,6.5,3,10.4c-2.5-1.4-4.7-2.9-6.6-4.8c-3.5-3.4-5.6-7.5-5.6-12.6c0-11.5,4.2-15.5,9.7-21.2
	C37.1,34.7,42.9,27.8,46,14.6z"/>
</svg>
