<!-- Generator: Adobe Illustrator 22.1.0, SVG Export Plug-In  -->
<svg version="1.1"
	 xmlns="http://www.w3.org/2000/svg" xmlns:xlink="http://www.w3.org/1999/xlink" xmlns:a="http://ns.adobe.com/AdobeSVGViewerExtensions/3.0/"
	 x="0px" y="0px" width="94px" height="94px" viewBox="0 0 94 94" style="enable-background:new 0 0 94 94;" xml:space="preserve">
<style type="text/css">
	.st0{fill:none;}
	.st1{fill:#FFFFFF;}
</style>
<defs>
</defs>
<g>
	<rect class="st0" width="94" height="94"/>
</g>
<g>
	<path class="st1" d="M23.4,19.3c-0.7-0.4-9.8,7.2-9.8,12.8c0,7.6,10.6,24.9,12.4,31.6c1.5,5.7-2.6,12.6-1.5,12.9
		c1,0.7,11-9.4,11.3-13.8C36.4,56,24.3,36,23.3,30.8C22.2,24.8,24.2,19.5,23.4,19.3z"/>
	<path class="st1" d="M46.1,11.5c-0.9-0.5-12.5,9.2-12.5,16.3c0,9.7,13.5,31.7,15.8,40.3c2,7.3-3.3,16.1-1.9,16.5
		c1.3,0.9,14-12,14.5-17.5c0.6-8.8-14.8-34.3-16-40.9C44.6,18.4,47.1,11.6,46.1,11.5z"/>
	<path class="st1" d="M69.5,19.3c-0.7-0.4-9.8,7.2-9.8,12.8c0,7.6,10.6,24.9,12.4,31.6c1.5,5.7-2.6,12.6-1.5,12.9
		c1,0.7,11-9.4,11.3-13.8C82.5,56,70.4,36,69.5,30.8C68.3,24.8,70.3,19.5,69.5,19.3z"/>
</g>
</svg>
