<!-- Generator: Adobe Illustrator 22.1.0, SVG Export Plug-In  -->
<svg version="1.1"
	 xmlns="http://www.w3.org/2000/svg" xmlns:xlink="http://www.w3.org/1999/xlink" xmlns:a="http://ns.adobe.com/AdobeSVGViewerExtensions/3.0/"
	 x="0px" y="0px" width="94px" height="94px" viewBox="0 0 94 94" style="enable-background:new 0 0 94 94;" xml:space="preserve">
<style type="text/css">
	.st0{fill:none;}
	.st1{fill:#FFFFFF;}
</style>
<defs>
</defs>
<rect class="st0" width="94" height="94"/>
<g>
	<g>
		<path class="st1" d="M66.7,85c-1.4-0.2-2.8-0.4-4.1-0.7c-5.1-1.3-9.9-3.2-14.4-5.9c-7.1-3.9-13.5-9-19-14.9
			c-6.7-7.3-12.3-15.3-15.8-24.7c-1.4-3.4-2.1-6.9-2.3-10.5c-0.3-3.6,1-7.1,3.5-9.7c2.1-2.1,4.1-4.4,6.4-6.3c3.5-3,7.3-3,10.7,0.1
			c3.6,3.3,7,6.8,10.3,10.4c2.5,2.7,2.5,6.9,0,9.6c-1.8,2-3.7,3.8-5.6,5.7c-0.2,0.2-0.4,0.3-0.7,0.6c5,9,12.4,16.4,21.4,21.3
			l4.4-4.5c1.1-1.3,2.5-2.3,4-3c2.5-1.1,5.4-0.6,7.3,1.3c3.7,3.5,7.4,7.2,10.9,10.9c2.5,2.7,2.6,6.8,0.2,9.5
			c-2.2,2.6-4.7,5.1-7.2,7.6c-1.8,1.6-4.1,2.7-6.5,2.9c-0.2,0-0.3,0.1-0.5,0.2L66.7,85z M67.8,80.5c2.5,0.1,4.9-0.8,6.7-2.6
			c1.7-1.8,3.4-3.5,5.1-5.2c0.2-0.2,0.4-0.5,0.6-0.7c1.2-1.2,1.2-3.1,0-4.3c0,0,0,0-0.1-0.1c-1.4-1.5-2.8-2.9-4.2-4.3
			c-1.8-1.8-3.7-3.7-5.6-5.5c-1.1-1.2-3-1.3-4.2-0.2c0,0-0.1,0.1-0.1,0.1c-0.3,0.2-0.5,0.5-0.8,0.8c-1.8,1.8-3.5,3.6-5.3,5.3
			c-1.1,1.2-2.8,1.5-4.2,0.7c-1.1-0.5-2.2-1.1-3.2-1.7c-4.6-2.8-8.8-6.3-12.4-10.4c-3.3-3.4-6.1-7.4-8.2-11.7
			c-1.1-2.3-0.8-3.5,1-5.3c1.8-1.8,3.8-3.7,5.6-5.6c1.2-1.1,1.3-2.9,0.2-4c0-0.1-0.1-0.1-0.1-0.2c-0.2-0.3-0.5-0.5-0.7-0.7L28.9,16
			c-1.9-1.9-3.5-1.9-5.4,0c-1.9,1.9-3.7,3.5-5.4,5.4c-0.8,0.9-1.5,1.9-2,3c-0.8,2.4-0.8,4.9-0.1,7.4c0.8,3.7,2.1,7.3,3.9,10.7
			c3,6,6.8,11.6,11.4,16.5c7.8,8.9,17.6,15.7,28.7,19.8C62.5,79.7,65.1,80.3,67.8,80.5L67.8,80.5z"/>
	</g>
</g>
</svg>
