<!-- Generator: Adobe Illustrator 22.1.0, SVG Export Plug-In  -->
<svg version="1.1"
	 xmlns="http://www.w3.org/2000/svg" xmlns:xlink="http://www.w3.org/1999/xlink" xmlns:a="http://ns.adobe.com/AdobeSVGViewerExtensions/3.0/"
	 x="0px" y="0px" width="94px" height="94px" viewBox="0 0 94 94" style="enable-background:new 0 0 94 94;" xml:space="preserve">
<style type="text/css">
	.st0{fill:none;}
	.st1{fill:#FFFFFF;}
</style>
<defs>
</defs>
<g>
	<rect class="st0" width="94" height="94"/>
</g>
<g>
	<path class="st1" d="M11.7,83.7c2.3,2.3,5.3,3.4,8.2,3.4c2.9,0,6-1.1,8.2-3.4l25-25c2.6,0.9,5.3,1.3,8,1.3h0.1
		c6.6,0,12.8-2.6,17.5-7.1l0,0c6.9-6.7,9.1-16.9,5.5-26c-0.2-0.7-1-1.3-1.8-1.5c-0.9-0.1-1.6,0.1-2.2,0.6l-9,9l-7.1-2.5L62,25.9
		l9.2-9.1c0.6-0.6,0.9-1.5,0.7-2.2c-0.1-0.9-0.7-1.5-1.5-1.8c-3.3-1.3-6.3-2-9.1-2c-6.6,0-12.9,2.6-17.5,7.1
		c-4.7,4.7-7.2,10.8-7.2,17.3c0,2.1,0.2,4.2,0.7,6.1L11.7,67.2C7.2,71.8,7.2,79.1,11.7,83.7z M15.2,70.7l26-26
		c0.1-0.1,0.4-0.4,0.5-0.5c0.7-0.6,1-1.7,0.7-2.6c-0.6-2-1-4-1-6.1c0-5.3,2.1-10.2,5.8-13.9c3.8-3.7,8.7-5.8,14.1-5.8
		c1.1,0,2.3,0.1,3.6,0.4l-7.4,7.2c-0.6,0.6-0.9,1.6-0.6,2.6l3.1,9.2c0.2,0.7,0.9,1.3,1.6,1.6l9.7,3.3c0.9,0.2,1.8,0.1,2.5-0.6
		l7.1-7.1c1.1,6.1-0.9,12.4-5.5,16.9c-3.8,3.7-8.7,5.8-14,5.8c0,0,0,0-0.1,0c-2.7,0-5.3-0.5-7.7-1.6c-0.9-0.4-2-0.1-2.7,0.5
		l-26,26.2c-2.6,2.6-6.9,2.6-9.6,0C12.6,77.7,12.6,73.4,15.2,70.7z"/>
</g>
</svg>
