<svg xmlns="http://www.w3.org/2000/svg" xmlns:xlink="http://www.w3.org/1999/xlink" width="132.6" height="163.8" viewBox="0 0 132.6 163.8"><style>.st0{fill:url(#SVGID_1_)}.st1{fill:#0069b4}.st2{fill:#d20a11}.st3{fill:url(#SVGID_2_)}</style><image width="116" height="76" xlink:href="9B53C10D0B75D39B.png" transform="translate(8.223 86.145)" overflow="visible"/><image width="61" height="64" xlink:href="9B53C10D0B75D399.png" transform="translate(.223 11.146)" overflow="visible"/><image width="56" height="61" xlink:href="9B53C10D0B75D39F.png" transform="translate(75.223 13.146)" overflow="visible"/><linearGradient id="SVGID_1_" gradientUnits="userSpaceOnUse" x1="64.435" y1="832.042" x2="197.025" y2="832.042" gradientTransform="translate(-64.435 -744.754)"><stop offset="0" stop-color="#eeebe9"/><stop offset="0" stop-color="#e7e3e0"/><stop offset=".065" stop-color="#d8d5d3"/><stop offset=".188" stop-color="#b2aeb0"/><stop offset=".264" stop-color="#989398"/><stop offset=".522" stop-color="#f8f8f8"/><stop offset=".588" stop-color="#eae9e9"/><stop offset=".714" stop-color="#c4c2c3"/><stop offset=".876" stop-color="#8c878a"/><stop offset="1" stop-color="#dadada"/><stop offset="1" stop-color="#b2b2b2"/></linearGradient><path class="st0" d="M120.9 89.3c-5.6 21.9-18.1 49.9-54.6 68.3-36.5-18.4-49-46.5-54.6-68.3h12.2c4 20.4 21.8 35.7 42.4 35.7 20.7 0 38.4-15.3 42.4-35.7h12.2m6.8-5.6H104c-1.6 20-17.9 35.7-37.7 35.7s-36.1-15.7-37.7-35.7H4.8c5 23.5 16.7 58.5 61.4 80 44.9-21.4 56.6-56.5 61.5-80zm-74-66.6c-3.2 6.5-7.5 12.1-11.9 18-7.6 9.9-15.4 20.2-17.9 35.2H8.1C6 54.3 5.5 36.9 5.4 29.6 20.5 23 39.3 18.8 53.7 17.1m8.3-6.3c-15.1.8-41.5 5.4-62 15.2 0 0-.1 27.3 3.4 49.8h25.2C30.9 47 54.3 36.3 62 10.8zm24.2 7.3c12.7 2 27.8 5.7 40.9 11.5-.1 7.3-.6 24.7-2.6 40.7h-15.9c-1.8-10-6.2-19.9-12.2-27.4l-1.7-2.1c-1.5-10.9-5.5-18.4-8.5-22.7M73.4 11c5.1 20.9-2.1 36-7.7 48.8-4.1 9.2-7.3 17.4-4.4 25.8 2.9-24 26.8-30.3 18-67.5 0 0 20.1 19.5 5.3 60.4 0 0 12.8-9.2 7.7-32 5.5 6.9 10.6 17.7 11.7 29.4h25.2c3.5-22.6 3.4-49.8 3.4-49.8-19.3-9.3-43.8-13.9-59.2-15.1z"/><path class="st1" d="M100.2 69.9c.1 1 .1 1.9.1 2.9 0 18.7-14.8 33.9-33 33.9s-33-15.2-33-33.9c0-6.7 1.2-12.3 3.2-17.3-3.8 6.9-6.4 14.7-6.4 24.7 0 19.9 15.7 36.1 35.1 36.1 19.4 0 35.1-16.2 35.1-36.1.1-3.5-.3-7-1.1-10.3z"/><path class="st2" d="M51.8 101.1c-4.1-6.1-9.5-19.6-9.1-30.3.3-6.5 2.3-16.1 12.5-29.4C63.4 30.8 67.6 18.1 67.6 0c-1.6 17.4-10 28.4-18.2 39.1-4.3 5.7-7.7 11.2-7.3 10.4-4 4.5-6.2 15-6.2 21.5 0 8.3 4.4 21.2 15.9 30.1zM84.1 30c2.6 14.6-.7 28.3-7 35.9-4.7 5.6-9.6 15.1-10.3 18.6-.7 3.4.8 10.5.8 10.5-2.9-5.3-2.9-11.3-2.9-11.3 1-8.3 4.8-14.3 8.9-20.7 5.3-8.5 11.2-17.8 10.5-33zm12.1 26.4c1.8 15-1.2 22.3-4.1 24.9-2.9 2.5-11.8 3.9-11.8 3.9l8.2-5.9c.5-.4 7.3-7.6 7.7-22.9z"/></svg>