<svg xmlns="http://www.w3.org/2000/svg" width="484.3" height="98.3" viewBox="0 0 484.3 98.3"><style>.st0{fill:#1e67aa}</style><path class="st0" d="M0 12.7C0 5.1 4.5 1.3 10.7 1.3c6.2 0 10.7 3.8 10.7 11.4v26.2L50.9 6.7c4.2-4.8 6.9-5.4 10-5.4 4.8 0 10.7 4.6 10.7 10.3 0 3.2-2 6.2-4.2 8.6L41.9 45.8l27.9 30.3c3.3 3.6 5.9 6.3 5.9 10.3 0 6.9-5.3 10.6-11.2 10.6-5.7 0-9.8-5.2-13.2-9L21.4 54.4v31.2c0 7.5-4.5 11.4-10.7 11.4C4.5 97 0 93.2 0 85.6V12.7zm78.4.1c0-6.9 5.1-10.7 10.7-10.7h32.8c6.7 0 10.7 4 10.7 9.9 0 6.2-4 9.9-10.7 9.9H99.8v17H120c6.7 0 10.7 3.8 10.7 9.9 0 6.1-4 9.9-10.7 9.9H99.8v17.6h22.9c6.7 0 10.7 3.7 10.7 9.9 0 5.9-4 9.9-10.7 9.9H89.1c-5.6 0-10.7-3.8-10.7-10.7V12.8zm61.1-.1c0-7.5 4.5-11.4 10.7-11.4 5.7 0 7.7 2.5 14.8 11.5l35.5 44.5h.3V12.7c0-7.5 4.5-11.4 10.7-11.4 6.2 0 10.7 3.8 10.7 11.4v72.9c0 7.5-4.5 11.4-10.7 11.4-5.7 0-7.8-2.5-14.8-11.5L161.2 41h-.3v44.7c0 7.5-4.5 11.4-10.7 11.4-6.2 0-10.7-3.8-10.7-11.4v-73zm98.6 58.8c5.3 0 12.2 5.4 23.1 5.4 8.3 0 11.4-4.2 11.4-8.9 0-7.1-8.2-8.6-20.3-12.6-11.1-3.6-22.6-8.3-22.6-25.4 0-20.5 16-30.1 33.8-30.1 17.2 0 26.7 5.9 26.7 14.1 0 5.8-3.8 10-9.5 10-6.9 0-9.1-3.6-18.2-3.6-5.8 0-9.8 3-9.8 7.7 0 5.4 5.3 6.1 20.1 11 11.6 3.8 22.9 9.8 22.9 27.6 0 21.7-16 31.4-35.9 31.4-12.6 0-31.6-4.9-31.6-15.5-.1-5.6 3.4-11.1 9.9-11.1zm155.5-22.3c0 29.9-18.4 49.2-46.3 49.2s-46.2-19.3-46.2-49.2c0-29.9 18.4-49.2 46.2-49.2 28 0 46.3 19.3 46.3 49.2zm-69.5 0c0 14.9 6.7 29.3 23.2 29.3s23.3-14.4 23.3-29.3-6.7-29.3-23.3-29.3c-16.4-.1-23.2 14.3-23.2 29.3zm77.5-36.5c0-7.5 4.5-11.4 10.7-11.4 5.7 0 7.7 2.5 14.8 11.5l35.5 44.5h.3V12.7c0-7.5 4.5-11.4 10.7-11.4 6.2 0 10.7 3.8 10.7 11.4v72.9c0 7.5-4.5 11.4-10.7 11.4-5.7 0-7.8-2.5-14.8-11.5L423.2 41h-.2v44.7c0 7.5-4.5 11.4-10.7 11.4-6.2 0-10.7-3.8-10.7-11.4v-73z"/></svg>