<svg id="Layer_1" xmlns="http://www.w3.org/2000/svg" viewBox="0 0 142.13 29.3"><style>.st0{fill:#f9b233}</style><path class="st0" d="M15.51.85l4.2 8.52 9.41 1.37-6.81 6.64 1.61 9.37-8.41-4.43-8.42 4.43 1.61-9.37-6.81-6.64 9.41-1.37zm28.03 0l4.2 8.52 9.41 1.37-6.81 6.64 1.61 9.37-8.41-4.43-8.42 4.43 1.61-9.37-6.81-6.64 9.41-1.37zm28.02 0l4.21 8.52 9.41 1.37-6.81 6.64 1.61 9.37-8.42-4.43-8.41 4.43 1.61-9.37-6.81-6.64 9.41-1.37zm28.03 0l4.21 8.52 9.41 1.37-6.81 6.64 1.61 9.37-8.42-4.43-8.41 4.43 1.61-9.37-6.81-6.64 9.41-1.37zm28.03 0l4.21 8.52 9.41 1.37-6.81 6.64 1.61 9.37-8.42-4.43-8.41 4.43 1.6-9.37-6.8-6.64 9.41-1.37z"/></svg>