<!-- Generator: Adobe Illustrator 22.1.0, SVG Export Plug-In  -->
<svg version="1.1"
	 xmlns="http://www.w3.org/2000/svg" xmlns:xlink="http://www.w3.org/1999/xlink" xmlns:a="http://ns.adobe.com/AdobeSVGViewerExtensions/3.0/"
	 x="0px" y="0px" width="484.3px" height="98.3px" viewBox="0 0 484.3 98.3" style="enable-background:new 0 0 484.3 98.3;"
	 xml:space="preserve">
<style type="text/css">
	.st0{fill:#FFFFFF;}
</style>
<defs>
</defs>
<path class="st0" d="M0,12.7C0,5.1,4.5,1.3,10.7,1.3c6.2,0,10.7,3.8,10.7,11.4v26.2L50.9,6.7c4.2-4.8,6.9-5.4,10-5.4
	c4.8,0,10.7,4.6,10.7,10.3c0,3.2-2,6.2-4.2,8.6L41.9,45.8l27.9,30.3c3.3,3.6,5.9,6.3,5.9,10.3c0,6.9-5.3,10.6-11.2,10.6
	c-5.7,0-9.8-5.2-13.2-9L21.4,54.4v31.2c0,7.5-4.5,11.4-10.7,11.4C4.5,97,0,93.2,0,85.6V12.7z M78.4,12.8c0-6.9,5.1-10.7,10.7-10.7
	h32.8c6.7,0,10.7,4,10.7,9.9c0,6.2-4,9.9-10.7,9.9H99.8v17H120c6.7,0,10.7,3.8,10.7,9.9c0,6.1-4,9.9-10.7,9.9H99.8v17.6h22.9
	c6.7,0,10.7,3.7,10.7,9.9c0,5.9-4,9.9-10.7,9.9H89.1c-5.6,0-10.7-3.8-10.7-10.7V12.8z M139.5,12.7c0-7.5,4.5-11.4,10.7-11.4
	c5.7,0,7.7,2.5,14.8,11.5l35.5,44.5h0.3V12.7c0-7.5,4.5-11.4,10.7-11.4c6.2,0,10.7,3.8,10.7,11.4v72.9c0,7.5-4.5,11.4-10.7,11.4
	c-5.7,0-7.8-2.5-14.8-11.5L161.2,41h-0.3v44.7c0,7.5-4.5,11.4-10.7,11.4c-6.2,0-10.7-3.8-10.7-11.4V12.7z M238.1,71.5
	c5.3,0,12.2,5.4,23.1,5.4c8.3,0,11.4-4.2,11.4-8.9c0-7.1-8.2-8.6-20.3-12.6c-11.1-3.6-22.6-8.3-22.6-25.4c0-20.5,16-30.1,33.8-30.1
	c17.2,0,26.7,5.9,26.7,14.1c0,5.8-3.8,10-9.5,10c-6.9,0-9.1-3.6-18.2-3.6c-5.8,0-9.8,3-9.8,7.7c0,5.4,5.3,6.1,20.1,11
	c11.6,3.8,22.9,9.8,22.9,27.6c0,21.7-16,31.4-35.9,31.4c-12.6,0-31.6-4.9-31.6-15.5C228.1,77,231.6,71.5,238.1,71.5z M393.6,49.2
	c0,29.9-18.4,49.2-46.3,49.2c-27.9,0-46.2-19.3-46.2-49.2c0-29.9,18.4-49.2,46.2-49.2C375.3,0,393.6,19.3,393.6,49.2z M324.1,49.2
	c0,14.9,6.7,29.3,23.2,29.3c16.5,0,23.3-14.4,23.3-29.3c0-14.9-6.7-29.3-23.3-29.3C330.9,19.8,324.1,34.2,324.1,49.2z M401.6,12.7
	c0-7.5,4.5-11.4,10.7-11.4c5.7,0,7.7,2.5,14.8,11.5l35.5,44.5h0.3V12.7c0-7.5,4.5-11.4,10.7-11.4c6.2,0,10.7,3.8,10.7,11.4v72.9
	c0,7.5-4.5,11.4-10.7,11.4c-5.7,0-7.8-2.5-14.8-11.5L423.2,41H423v44.7c0,7.5-4.5,11.4-10.7,11.4c-6.2,0-10.7-3.8-10.7-11.4V12.7z"
	/>
</svg>
