<!-- Generator: Adobe Illustrator 22.1.0, SVG Export Plug-In  -->
<svg version="1.1"
	 xmlns="http://www.w3.org/2000/svg" xmlns:xlink="http://www.w3.org/1999/xlink" xmlns:a="http://ns.adobe.com/AdobeSVGViewerExtensions/3.0/"
	 x="0px" y="0px" width="132.6px" height="163.8px" viewBox="0 0 132.6 163.8" style="enable-background:new 0 0 132.6 163.8;"
	 xml:space="preserve">
<style type="text/css">
	.st0{fill:url(#SVGID_1_);}
	.st1{fill:#0069B4;}
	.st2{fill:#D20A11;}
	.st3{fill:url(#SVGID_2_);}
</style>
<defs>
</defs>
<g>
	<g>
		
			<image style="overflow:visible;" width="116" height="76" xlink:href="9B53C10D0B75D39B.png"  transform="matrix(1 0 0 1 8.223 86.1455)">
		</image>
	</g>
	
		<image style="overflow:visible;" width="61" height="64" xlink:href="9B53C10D0B75D399.png"  transform="matrix(1 0 0 1 0.223 11.1455)">
	</image>
	
		<image style="overflow:visible;" width="56" height="61" xlink:href="9B53C10D0B75D39F.png"  transform="matrix(1 0 0 1 75.223 13.1455)">
	</image>
	
		<linearGradient id="SVGID_1_" gradientUnits="userSpaceOnUse" x1="64.4346" y1="832.0422" x2="197.0251" y2="832.0422" gradientTransform="matrix(1 0 0 1 -64.4346 -744.7539)">
		<stop  offset="0" style="stop-color:#EEEBE9"/>
		<stop  offset="0" style="stop-color:#E7E3E0"/>
		<stop  offset="6.475239e-02" style="stop-color:#D8D5D3"/>
		<stop  offset="0.1884" style="stop-color:#B2AEB0"/>
		<stop  offset="0.264" style="stop-color:#989398"/>
		<stop  offset="0.5225" style="stop-color:#F8F8F8"/>
		<stop  offset="0.5879" style="stop-color:#EAE9E9"/>
		<stop  offset="0.7136" style="stop-color:#C4C2C3"/>
		<stop  offset="0.8764" style="stop-color:#8C878A"/>
		<stop  offset="1" style="stop-color:#DADADA"/>
		<stop  offset="1" style="stop-color:#B2B2B2"/>
	</linearGradient>
	<path class="st0" d="M120.9,89.3c-5.6,21.9-18.1,49.9-54.6,68.3c-36.5-18.4-49-46.5-54.6-68.3h12.2c4,20.4,21.8,35.7,42.4,35.7
		c20.7,0,38.4-15.3,42.4-35.7H120.9 M127.7,83.7H104c-1.6,20-17.9,35.7-37.7,35.7s-36.1-15.7-37.7-35.7H4.8
		c5,23.5,16.7,58.5,61.4,80C111.1,142.3,122.8,107.2,127.7,83.7L127.7,83.7z M53.7,17.1c-3.2,6.5-7.5,12.1-11.9,18
		C34.2,45,26.4,55.3,23.9,70.3H8.1C6,54.3,5.5,36.9,5.4,29.6C20.5,23,39.3,18.8,53.7,17.1 M62,10.8C46.9,11.6,20.5,16.2,0,26
		c0,0-0.1,27.3,3.4,49.8h25.2C30.9,47,54.3,36.3,62,10.8L62,10.8z M86.2,18.1c12.7,2,27.8,5.7,40.9,11.5c-0.1,7.3-0.6,24.7-2.6,40.7
		h-15.9c-1.8-10-6.2-19.9-12.2-27.4l-1.7-2.1C93.2,29.9,89.2,22.4,86.2,18.1 M73.4,11c5.1,20.9-2.1,36-7.7,48.8
		c-4.1,9.2-7.3,17.4-4.4,25.8c2.9-24,26.8-30.3,18-67.5c0,0,20.1,19.5,5.3,60.4c0,0,12.8-9.2,7.7-32c5.5,6.9,10.6,17.7,11.7,29.4
		h25.2c3.5-22.6,3.4-49.8,3.4-49.8C113.3,16.8,88.8,12.2,73.4,11L73.4,11z"/>
	<path class="st1" d="M100.2,69.9c0.1,1,0.1,1.9,0.1,2.9c0,18.7-14.8,33.9-33,33.9c-18.2,0-33-15.2-33-33.9c0-6.7,1.2-12.3,3.2-17.3
		c-3.8,6.9-6.4,14.7-6.4,24.7c0,19.9,15.7,36.1,35.1,36.1c19.4,0,35.1-16.2,35.1-36.1C101.4,76.7,101,73.2,100.2,69.9z"/>
	<path class="st2" d="M51.8,101.1c-4.1-6.1-9.5-19.6-9.1-30.3C43,64.3,45,54.7,55.2,41.4C63.4,30.8,67.6,18.1,67.6,0
		c-1.6,17.4-10,28.4-18.2,39.1c-4.3,5.7-7.7,11.2-7.3,10.4c-4,4.5-6.2,15-6.2,21.5C35.9,79.3,40.3,92.2,51.8,101.1z"/>
	<path class="st2" d="M84.1,30c2.6,14.6-0.7,28.3-7,35.9c-4.7,5.6-9.6,15.1-10.3,18.6c-0.7,3.4,0.8,10.5,0.8,10.5
		c-2.9-5.3-2.9-11.3-2.9-11.3c1-8.3,4.8-14.3,8.9-20.7C78.9,54.5,84.8,45.2,84.1,30z"/>
	<path class="st2" d="M96.2,56.4c1.8,15-1.2,22.3-4.1,24.9c-2.9,2.5-11.8,3.9-11.8,3.9l8.2-5.9C89,78.9,95.8,71.7,96.2,56.4z"/>
</g>
</svg>
