<?xml version="1.0" encoding="utf-8"?>
<!-- Generator: Adobe Illustrator 23.0.3, SVG Export Plug-In . SVG Version: 6.00 Build 0)  -->
<svg version="1.1" id="Layer_1" xmlns="http://www.w3.org/2000/svg" xmlns:xlink="http://www.w3.org/1999/xlink" x="0px" y="0px"
	 viewBox="0 0 142.13 29.3" style="enable-background:new 0 0 142.13 29.3;" xml:space="preserve">
<style type="text/css">
	.st0{fill:#F9B233;}
</style>
<polygon class="st0" points="15.51,0.85 19.71,9.37 29.12,10.74 22.31,17.38 23.92,26.75 15.51,22.32 7.09,26.75 8.7,17.38 
	1.89,10.74 11.3,9.37 "/>
<polygon class="st0" points="43.54,0.85 47.74,9.37 57.15,10.74 50.34,17.38 51.95,26.75 43.54,22.32 35.12,26.75 36.73,17.38 
	29.92,10.74 39.33,9.37 "/>
<polygon class="st0" points="71.56,0.85 75.77,9.37 85.18,10.74 78.37,17.38 79.98,26.75 71.56,22.32 63.15,26.75 64.76,17.38 
	57.95,10.74 67.36,9.37 "/>
<polygon class="st0" points="99.59,0.85 103.8,9.37 113.21,10.74 106.4,17.38 108.01,26.75 99.59,22.32 91.18,26.75 92.79,17.38 
	85.98,10.74 95.39,9.37 "/>
<polygon class="st0" points="127.62,0.85 131.83,9.37 141.24,10.74 134.43,17.38 136.04,26.75 127.62,22.32 119.21,26.75 
	120.81,17.38 114.01,10.74 123.42,9.37 "/>
</svg>
